<svg xmlns="http://www.w3.org/2000/svg" viewBox="0 0 1280 720" role="img" aria-label="MapDiagram product preview">
  <defs>
    <linearGradient id="bg" x1="0" y1="0" x2="1" y2="1">
      <stop offset="0%" stop-color="#0d1527"/>
      <stop offset="100%" stop-color="#101b34"/>
    </linearGradient>
    <linearGradient id="panel" x1="0" y1="0" x2="1" y2="1">
      <stop offset="0%" stop-color="#152440"/>
      <stop offset="100%" stop-color="#1b2d50"/>
    </linearGradient>
  </defs>
  <rect width="1280" height="720" fill="url(#bg)"/>
  <rect x="36" y="36" width="1208" height="648" rx="22" fill="#0f1a31" stroke="#2b406b"/>
  <rect x="58" y="58" width="230" height="604" rx="16" fill="url(#panel)" stroke="#355386"/>
  <rect x="1002" y="58" width="220" height="604" rx="16" fill="url(#panel)" stroke="#355386"/>
  <rect x="306" y="58" width="676" height="78" rx="12" fill="#152645" stroke="#2f4f80"/>
  <rect x="306" y="154" width="676" height="508" rx="16" fill="#0f1830" stroke="#2f4f80"/>
  <rect x="378" y="244" width="176" height="92" rx="14" fill="#234070" stroke="#5e8cd2"/>
  <rect x="630" y="214" width="176" height="92" rx="14" fill="#2b3f7a" stroke="#789ef0"/>
  <rect x="630" y="382" width="176" height="92" rx="14" fill="#28486f" stroke="#77b7de"/>
  <rect x="840" y="304" width="108" height="74" rx="12" fill="#325a88" stroke="#7fb5f4"/>
  <path d="M554 290 C 595 290, 595 260, 630 260" stroke="#94b7ff" stroke-width="4" fill="none"/>
  <path d="M806 260 C 840 260, 840 318, 840 342" stroke="#94b7ff" stroke-width="4" fill="none"/>
  <path d="M554 290 C 600 290, 600 430, 630 430" stroke="#88cdb9" stroke-width="4" fill="none"/>
</svg>
